<svg width="361" height="82" viewBox="0 0 361 82" fill="none" xmlns="http://www.w3.org/2000/svg">
<path fill-rule="evenodd" clip-rule="evenodd" d="M55 15.2209C57.2355 15.2209 60.2362 16.457 62.5 18.7209C64.4998 20.7207 64.9999 23.4888 65 24.8732V58.2209C65 65.0209 67.3333 67.0542 68.5 67.2209H58.5V62.2209C57.1667 64.2209 50.5 68.2209 45.5 68.2209C36.5 68.2209 31 62.2209 31 56.7209C31 51.2209 33.5 46.7209 37 43.2209C40.5 39.7209 50 32.7209 54.5 29.2209C59 25.7209 58 24.2209 58 22.2209C58 20.2209 56 18.7209 52 18.2209C48 17.7209 46 18.2209 43 19.2209C40 20.2208 38.5 22.2208 38 21.7209C37.5 21.2209 40 19.7209 41 18.7209C42 17.7209 44.5 16.2209 47 15.7209C49 15.3209 53.1667 15.2209 55 15.2209ZM58.5 27.7209C58 28.2209 55 31.0209 47 38.2209C37 47.2209 37.5 53.2209 38 56.2209C38.5 59.2209 40.0001 64.7209 48 64.7209C53.2 64.7208 57.1667 61.7209 58.5 60.2209V27.7209Z" fill="white"/>
<path d="M81 23.7209V15.2209L72.5 17.7209C73 18.2209 74.5 19.4209 74.5 20.2209V63.2209C74.5 65.2209 73.5 66.7209 73 67.2209H83C81.4 67.2209 81 64.4516 81 63.067V26.2209C81.6667 25.7209 83 23.7209 86 21.7209C89.2493 19.5547 92.5 18.7209 95 18.7209C97.5 18.7209 100 18.7209 103 21.2209C104.351 22.3467 105.5 25.7209 105.5 26.9762V63.067C105.5 65.3438 104.5 66.7849 104 67.2209H114C112.5 67.2209 112 64.2209 112 63.067V37.2209C112 35.7209 112.066 26.4194 111.5 24.7209C109.5 18.7209 106.5 15.2209 98 15.2209C91.2 15.2209 83.8333 20.8875 81 23.7209Z" fill="white"/>
<path d="M15.5 0.220865C15.5 0.220865 14.8342 0.116648 14 0.220914C10 0.720884 7.00002 2.02091 5.00002 3.22091C2.50002 4.72091 0.500024 8.72091 0.500024 13.2209C0.500024 17.7209 5.50002 25.2209 8.50002 29.2209C11.5 33.2209 17 41.2209 18 43.2209C19 45.2209 22 52.2209 18.5 58.2209C15 64.2209 6 66.221 3 66.2209C1.5 66.2209 0.5 66.7208 0.5 67.2209C0.5 67.3875 1 67.7209 3 67.7209C5.5 67.7209 11 66.7209 12.5 66.2209C14 65.7209 22 63.2209 25 57.2209C28 51.2209 26.5 44.2209 25 41.2209C23.5 38.2209 16 27.7209 14.5 25.7209C13 23.7209 6.5 14.7209 6 13.2209C5.5 11.7209 4.5 9.22091 7 5.22091C9.5 1.22091 13.5 1.72086 15 1.22088C15.3381 1.10818 15.5 0.720854 15.5 0.220865Z" fill="white"/>
<path d="M180.5 0.220861V7.22086C173 1.72087 164.5 1.72086 157 6.72086C149.5 11.7209 146 23.2209 146 36.2209C146 49.2209 152.5 59.7209 160 62.7209C167.5 65.7209 170.5 64.7209 174 63.7209C176.8 62.9209 179.5 61.0542 180.5 60.2209V67.7209C176.833 67.7209 168.2 67.4209 163 66.2209C156.5 64.7209 148.5 58.2209 145.5 53.7209C142.5 49.2209 138 40.7209 139.5 28.7209C141 16.7209 149.5 8.72086 155.5 5.22086C161.5 1.72086 164.5 0.720861 171.5 0.220861C177.1 -0.179139 179.833 0.054194 180.5 0.220861Z" fill="white"/>
<path d="M185 3.72086L193 1.72086V23.7209C194.833 22.0542 199 18.4209 201 17.2209C203.5 15.7209 211 13.2209 217.5 16.2209C222.7 18.6209 224 24.5542 224 27.2209V63.7209C224 65.3209 225.333 66.7209 226 67.2209H216C217.2 66.8209 217.5 64.7209 217.5 63.7209V27.2209C217.5 23.2209 215.5 18.7209 207.5 18.7209C201.1 18.7209 195.167 23.3875 193 25.7209V63.7209C193 65.3209 194.333 66.7209 195 67.2209H185C186.2 66.8209 186.5 64.7209 186.5 63.7209V6.72086C186.5 4.72086 185.5 3.88752 185 3.72086Z" fill="white"/>
<path fill-rule="evenodd" clip-rule="evenodd" d="M238 30H270.118C270.451 25.1667 268.218 15.4 256.618 15C242.118 14.5 238 22.5 235 27C232 31.5 231 40 232 47.5C233 55 239.093 65.0207 248 67C256 68.7778 264.5 69 270.5 56C270.973 54.9758 270.559 54.162 270 55C269 56.5 268.291 57.7091 267.5 58.5C266.847 59.1532 251.5 71 239.5 51.5C237.685 48.5514 236.944 43.4781 237 39C237.061 34.1511 238 30 238 30ZM257.358 28.5H238.5C241.382 18.5 250.618 15.5 256.118 16.5C261.618 17.5 262.378 19.2463 263.118 22C263.858 24.7538 261.858 28.5 257.358 28.5Z" fill="white"/>
<path d="M283 15.2209V23.2209C290 17.2209 295.5 15.2209 298.5 15.2209C301.5 15.2209 304 15.2209 309 17.7209C314 20.2209 314 26.7209 314 27.5291V62.7209C314 64.7209 315.333 66.5542 316 67.2209H305.5C304.5 67.2209 307.5 65.2209 307.5 63.7209V32.2209C307.5 30.2209 307.5 28.7209 307 26.2209C306.5 23.7209 305.5 19.2209 298 18.7209C292 18.3209 285.5 23.2209 283 25.7209V62.7209C283 65.5209 284.333 66.8875 285 67.2209H274.5C273.5 67.2209 276.098 65.2209 276.5 63.7209C276.902 62.2209 276.5 24.2209 276.5 21.7209C276.5 19.7209 275.167 17.8875 274.5 17.2209L283 15.2209Z" fill="white"/>
<path fill-rule="evenodd" clip-rule="evenodd" d="M358.5 16.2209H345.5C349.5 17.1795 358.5 22.7209 357.5 33.7209C356.5 44.7209 348 48.2209 344.5 49.2209C341 50.2209 337.5 49.7209 335.5 49.2209C334.849 49.0582 328 49.2209 327 49.7209C326.106 50.1681 325.5 50.2209 326 51.2209C326.5 52.2209 350.5 58.7209 352 59.7209C353.5 60.7209 363.5 64.2209 359.5 72.7209C355.5 81.2209 342 81.7209 339 81.7209C336 81.7209 319.5 80.7209 319.5 71.2209C319.5 63.6209 327.5 60.3875 331.5 59.7209C319 57.2209 320.5 51.2209 323 49.2209C325 47.6209 329.833 47.8875 332 48.2209C328 46.0542 320.2 39.5209 321 30.7209C322 19.7209 332 14.7209 340 15.2209C346.4 15.6209 352.667 13.0542 355 11.7209L358.5 16.2209ZM334.5 60.2209C328.5 62.2208 326.6 64.221 325 68.2209C323 73.2207 328 77.2208 332.5 79.2209C337 81.2207 345.5 80.2208 348 79.2209C350.2 78.3409 355.5 77.2206 355 70.7209C354.6 65.5209 341 61.5542 334.5 60.2209ZM339.5 16.2209C333.149 16.2211 328 23.4964 328 32.4709C328 41.4453 333.149 48.7206 339.5 48.7209C345.851 48.7207 351 41.4454 351 32.4709C351 23.4963 345.851 16.221 339.5 16.2209Z" fill="white"/>
</svg>
