<svg width="48" height="48" viewBox="0 0 48 48" fill="none" xmlns="http://www.w3.org/2000/svg">
<path d="M32 4H40V8H32V4ZM36 8H40V12H36V8ZM32 12H36V16H32V12ZM28 16H32V20H28V16ZM24 20H28V24H24V20ZM20 24H24V28H20V24ZM16 28H20V32H16V28ZM12 32H16V36H12V32ZM8 36H12V40H8V36ZM4 32H8V40H4V32ZM8 28H12V32H8V28ZM12 24H16V28H12V24ZM16 20H20V24H16V20ZM20 16H24V20H20V16ZM24 12H28V16H24V12ZM28 8H32V12H28V8ZM28 12H32V16H28V12ZM32 8H36V12H32V8ZM32 24H36V28H32V24ZM32 40H36V44H32V40ZM24 32H28V36H24V32ZM40 32H44V36H40V32ZM28 28H32V32H28V28ZM36 28H40V32H36V28ZM36 36H40V40H36V36ZM28 36H32V40H28V36ZM8 4H12V8H8V4ZM4 8H8V12H4V8ZM8 12H12V16H8V12ZM12 8H16V12H12V8ZM40 20H44V24H40V20ZM16 40H20V44H16V40Z" fill="white"/>
</svg>
